<?xml version="1.0" standalone="no"?>
<!DOCTYPE svg PUBLIC "-//W3C//DTD SVG 20010904//EN"
 "http://www.w3.org/TR/2001/REC-SVG-20010904/DTD/svg10.dtd">
<svg version="1.0" xmlns="http://www.w3.org/2000/svg"
 width="1112.000000pt" height="1120.000000pt" viewBox="0 0 1112.000000 1120.000000"
 preserveAspectRatio="xMidYMid meet">

<g transform="translate(0.000000,1120.000000) scale(0.100000,-0.100000)"
fill="#000000" stroke="none">
<path d="M1655 10819 c-7 -11 1 -993 12 -1464 4 -159 6 -461 4 -669 -2 -209 0
-442 4 -518 7 -124 9 -138 25 -138 11 0 31 18 47 42 15 23 83 98 149 168 67
69 125 136 128 148 4 12 24 31 44 41 20 10 57 29 82 42 l45 24 1015 2 c1131 2
1216 3 1245 19 22 13 1163 26 2143 26 l537 0 124 -27 c68 -14 144 -35 170 -45
100 -40 278 -131 306 -157 17 -16 57 -49 89 -73 33 -25 87 -79 121 -121 105
-128 142 -263 132 -474 -10 -215 -51 -327 -169 -466 -40 -48 -93 -112 -118
-142 -102 -128 -450 -358 -673 -446 -72 -29 -316 -105 -482 -151 -121 -34
-187 -40 -533 -50 -404 -11 -594 -25 -645 -45 -25 -10 -73 -15 -148 -15 -102
0 -111 -1 -104 -17 4 -10 12 -34 17 -53 6 -19 27 -73 48 -120 21 -47 61 -141
90 -210 29 -69 74 -174 100 -235 26 -60 71 -168 99 -240 150 -387 186 -476
215 -540 18 -38 50 -114 71 -167 26 -66 45 -100 58 -104 11 -3 95 0 188 6 220
17 699 8 858 -15 142 -21 411 -86 493 -121 102 -42 289 -152 343 -201 28 -25
61 -55 75 -67 82 -69 173 -203 223 -326 28 -72 79 -291 72 -314 -19 -60 -21
-94 -8 -111 20 -28 16 -53 -17 -99 -17 -23 -37 -65 -44 -92 -55 -203 -173
-404 -325 -554 -110 -108 -153 -135 -414 -260 -146 -69 -204 -92 -270 -104
-73 -14 -292 -18 -1628 -26 -849 -6 -1546 -7 -1550 -2 -4 4 -10 576 -14 1272
-7 1163 -6 1267 9 1279 13 11 65 13 241 12 124 -1 232 -4 239 -7 21 -8 5 51
-26 101 -29 46 -168 294 -168 299 0 2 -43 75 -95 161 -52 87 -95 160 -95 162
0 2 -11 19 -25 37 -14 18 -25 35 -25 38 0 3 -18 32 -39 64 -21 33 -65 111 -96
174 -32 63 -79 147 -105 185 -26 39 -69 113 -96 164 -55 105 -57 108 -101 172
-17 25 -46 74 -63 110 -61 123 -97 187 -160 279 -28 41 -174 298 -230 405
-157 300 -213 410 -219 434 -17 61 -72 29 -138 -78 -25 -42 -56 -92 -68 -111
-12 -19 -48 -84 -80 -145 -32 -60 -101 -189 -153 -285 -52 -96 -108 -203 -124
-237 -15 -34 -56 -109 -91 -165 -35 -57 -74 -125 -86 -152 -12 -27 -66 -126
-121 -220 -55 -94 -120 -218 -146 -275 -25 -57 -62 -131 -81 -165 -19 -33 -60
-110 -91 -171 -30 -60 -66 -126 -78 -146 -13 -20 -57 -104 -99 -187 -41 -82
-98 -184 -125 -226 -66 -102 -86 -141 -104 -213 -9 -34 -16 -63 -16 -66 0 -2
142 -4 314 -3 220 1 318 -2 326 -10 8 -8 11 -387 11 -1385 0 -1752 12 -3116
26 -3130 8 -8 104 -10 305 -8 161 2 367 3 458 4 1087 4 3550 27 3843 35 384
10 466 18 747 66 80 14 197 34 260 45 208 35 269 50 413 100 78 28 180 61 227
75 89 26 187 71 430 202 180 96 286 168 370 252 37 36 97 90 135 121 94 76
287 266 366 362 64 77 246 361 299 467 15 30 37 87 50 125 12 39 37 104 55
145 34 78 85 227 109 321 59 223 76 294 90 364 29 144 46 355 52 655 6 232 10
297 20 303 19 11 18 77 -1 104 -8 12 -22 57 -30 100 -8 44 -30 125 -49 181
-31 92 -61 154 -168 352 -19 36 -58 109 -86 162 -93 177 -157 264 -317 424
-82 82 -197 187 -255 231 -58 45 -122 99 -144 121 l-39 41 28 48 c16 26 64 86
108 132 192 205 378 461 497 686 40 77 90 167 111 200 39 63 127 310 173 488
41 157 79 464 72 573 -3 50 -1 126 5 169 8 63 8 86 -4 124 -25 77 -28 104 -18
157 7 37 6 65 -4 105 -59 234 -81 311 -130 443 -31 83 -94 228 -140 321 -68
139 -98 187 -163 265 -44 53 -89 111 -100 129 -31 51 -265 295 -345 359 -39
32 -91 74 -116 94 -25 20 -65 50 -89 65 -166 108 -206 133 -216 133 -12 0 -96
42 -166 82 -70 41 -167 79 -265 104 -49 12 -128 37 -175 54 -121 44 -296 88
-425 105 -60 8 -213 29 -340 47 -247 34 -473 42 -715 25 -63 -4 -701 -12
-1416 -16 -716 -5 -1306 -11 -1311 -14 -27 -17 -379 -27 -1058 -29 -740 -2
-761 -2 -790 17 -16 11 -32 22 -35 25 -11 12 -264 207 -303 233 -45 30 -53 32
-62 16z"/>
</g>
</svg>
